<svg version="1.1" xmlns="http://www.w3.org/2000/svg" xmlns:xlink="http://www.w3.org/1999/xlink" viewBox="0 0 172 172"><g fill="none" fill-rule="nonzero" stroke="none" stroke-width="1" stroke-linecap="butt" stroke-linejoin="miter" stroke-miterlimit="10" stroke-dasharray="" stroke-dashoffset="0" font-family="none" font-weight="none" font-size="none" text-anchor="none" style="mix-blend-mode: normal"><path d="M0,172v-172h172v172z" fill="none"></path><g fill="#d5e763"><path d="M9.91672,17.41823c-4.57426,0.00734 -7.12564,1.03936 -7.76462,3.12251c-0.78643,2.56388 1.67955,5.43231 7.62027,8.76784c5.03234,2.82456 11.94261,5.66426 19.52506,7.99164c0.22609,0.06954 0.60101,0.13452 0.60101,0.20406v14.90198l3.35938,1.00781v-14.94266c6.38281,1.67498 11.99294,2.79169 16.7142,3.18944c1.25641,0.10616 2.44386,0.12467 3.48863,0.12467c4.60066,0 7.18368,-1.13707 7.82498,-3.1527h0.00853c0.7871,-2.35156 -1.71271,-5.39624 -7.65242,-8.73109c-5.03134,-2.82523 -11.97772,-5.6469 -19.55983,-7.97327c-7.58211,-2.32637 -14.92369,-3.86734 -20.67393,-4.3521c-1.27236,-0.10708 -2.43566,-0.15982 -3.49126,-0.15813zM162.08263,17.4261c-1.05571,-0.00132 -2.2193,0.05192 -3.49192,0.15944c-5.75024,0.48442 -13.09314,2.0326 -20.67525,4.35997c-7.58211,2.32738 -14.52979,5.16442 -19.5618,7.99033c-5.94005,3.33485 -8.4444,6.20201 -7.65898,8.76521c0.6413,2.0892 3.20495,3.11858 7.80595,3.11858c1.04443,0 2.26993,-0.05296 3.52734,-0.15878c4.72127,-0.39775 10.33139,-1.51445 16.7142,-3.18944v16.28641l3.35938,-1.00781v-16.24573c0,-0.06719 0.37558,-0.13452 0.60167,-0.20406c7.58211,-2.32738 14.4914,-5.16509 19.52374,-7.99032c5.93971,-3.33519 8.40769,-6.20201 7.62093,-8.76521c-0.63925,-2.0826 -3.19053,-3.11285 -7.76527,-3.11858zM72.4877,46.02344c-1.80289,-0.004 -3.27048,1.44893 -3.28458,3.25177v3.28064c0.00852,0.86165 0.35971,1.68446 0.97599,2.28671c0.61628,0.60225 1.44696,0.93439 2.30858,0.92307h11.49667v7.72656h3.35938v-7.72656h11.43631c1.80647,0.02823 3.29868,-1.40368 3.34494,-3.20978v-3.28064c-0.04234,-1.81443 -1.53004,-3.26069 -3.34494,-3.25177zM24.27739,53.78412c-0.23431,0.00384 -0.46186,0.07916 -0.65219,0.21587c-0.25495,0.18294 -0.42397,0.4622 -0.46782,0.77292l-2.08649,13.88564c-0.09227,0.7016 0.37647,1.35416 1.0708,1.49072l32.33661,5.75358c2.06138,-2.26705 4.36203,-4.30438 6.86179,-6.0764l1.19481,-7.9549c0.09247,-0.70179 -0.37628,-1.35465 -1.0708,-1.49138l-36.95772,-6.57703c-0.0755,-0.01397 -0.15222,-0.02034 -0.22899,-0.01903zM145.26476,55.61209c-0.06503,-0.00005 -0.12997,0.00499 -0.19422,0.01509l-35.46109,5.8087c-0.67321,0.11133 -1.12949,0.7463 -1.02028,1.41986l1.11673,6.81586c2.47774,1.7329 4.76312,3.72573 6.81717,5.94452l30.98958,-5.07646c0.67351,-0.11132 1.12989,-0.74672 1.02028,-1.42052l-2.04318,-12.47233c-0.10216,-0.59703 -0.61928,-1.03383 -1.22499,-1.03471zM84.51387,65.45532c-17.14526,0.4956 -31.92454,12.20433 -36.32932,28.78153c-4.40478,16.57719 2.61321,34.07776 17.25109,43.01855c-0.01512,0.01713 -0.03379,0.03009 -0.0479,0.0479l-6.12299,7.48248c-0.5874,0.71803 -0.4815,1.7763 0.23653,2.3637c0.71803,0.5874 1.7763,0.4815 2.3637,-0.23653l6.12299,-7.48248c0.14071,-0.17199 0.24577,-0.37028 0.30904,-0.5833c10.91083,5.4695 23.7629,5.4695 34.67374,0c0.06342,0.21296 0.16846,0.41122 0.30904,0.5833l6.12299,7.48248c0.5874,0.71804 1.64567,0.82394 2.3637,0.23653c0.71804,-0.5874 0.82394,-1.64567 0.23653,-2.3637l-6.12233,-7.48248c-0.01478,-0.0178 -0.03379,-0.03077 -0.0479,-0.0479c11.51677,-7.03767 18.54334,-19.55954 18.54939,-33.05638c0.00311,-10.47291 -4.23322,-20.50109 -11.74386,-27.79987c-7.51064,-7.29878 -17.6559,-11.24652 -28.12444,-10.94382zM84.2173,70.16501c9.27212,-0.38596 18.30035,3.02775 24.99747,9.45191c6.69712,6.42416 10.48333,15.30261 10.48331,24.58276c-0.02158,18.80408 -15.26011,34.04232 -34.06419,34.06354c-18.53279,-0.00585 -33.6605,-14.82683 -34.04594,-33.35561c-0.38544,-18.52878 14.11285,-33.96604 32.62936,-34.74259zM85.63388,73.4942c-16.9577,0.00007 -30.70458,13.74703 -30.70456,30.70473c0.00002,16.9577 13.74695,30.70462 30.70464,30.70464c16.9577,0.00002 30.70466,-13.74686 30.70473,-30.70456c-0.01844,-16.95016 -13.75466,-30.68638 -30.70482,-30.70482zM29.89844,73.57031v52.35835l-21.54134,17.50877c-0.34155,0.28519 -0.55568,0.69449 -0.59519,1.13769c-0.03951,0.4432 0.09885,0.88393 0.38457,1.22503c0.32668,0.39494 0.81284,0.6231 1.32538,0.62201c0.36471,-0.00021 0.71688,-0.13315 0.99075,-0.37399l19.43582,-15.79628v22.64232c0,0.92767 0.75202,1.67969 1.67969,1.67969c0.92767,0 1.67969,-0.75202 1.67969,-1.67969v-22.64232l19.57689,15.79628c0.3127,0.24312 0.69768,0.37475 1.09377,0.37399c0.50184,0.00046 0.97631,-0.22868 1.28798,-0.62201c0.57746,-0.72693 0.45708,-1.7842 -0.26901,-2.36272l-21.68962,-17.50877v-51.35054zM142.10156,73.57031l-3.35937,1.00781v51.35054l-21.69159,17.50877c-0.73011,0.57428 -0.85777,1.6311 -0.28542,2.36272c0.31143,0.39327 0.78568,0.62242 1.28732,0.62201c0.4048,0.00118 0.79885,-0.13017 1.12198,-0.37399l19.5677,-15.79628v22.64232c0,0.92767 0.75202,1.67969 1.67969,1.67969c0.92767,0 1.67969,-0.75202 1.67969,-1.67969v-22.64232l19.42663,15.79628c0.28458,0.24152 0.64572,0.37407 1.01897,0.37399c0.51237,0.00118 0.99837,-0.22702 1.32472,-0.62201c0.28317,-0.34359 0.41814,-0.78565 0.37519,-1.22882c-0.04295,-0.44316 -0.2603,-0.85108 -0.60418,-1.1339l-21.54134,-17.50877zM94.18323,97.69482c3.22772,-0.13431 6.37054,1.05403 8.70192,3.2903c2.33138,2.23627 3.64951,5.32689 3.64969,8.55741c-0.00763,6.5463 -5.31255,11.85123 -11.85886,11.85886c-6.44973,-0.00497 -11.71286,-5.16382 -11.84689,-11.61216c-0.13403,-6.44833 4.91019,-11.82143 11.35414,-12.0944zM94.67598,101.04239c-4.69392,0.00014 -8.499,3.80539 -8.49896,8.49931c0.00005,4.69392 3.80521,8.49908 8.49913,8.49913c4.69392,0.00005 8.49916,-3.80504 8.49931,-8.49896c-0.00578,-4.69174 -3.80774,-8.4937 -8.49948,-8.49948z"></path></g></g></svg>